<?xml version="1.0" encoding="UTF-8" standalone="no"?>
<!-- Created with Inkscape (http://www.inkscape.org/) -->

<svg
   width="91.784836mm"
   height="159.01042mm"
   viewBox="0 0 91.784836 159.01042"
   version="1.1"
   id="svg1"
   xml:space="preserve"
   inkscape:version="1.3 (0e150ed, 2023-07-21)"
   sodipodi:docname="In&amp;Box-Light-Logo.svg"
   xmlns:inkscape="http://www.inkscape.org/namespaces/inkscape"
   xmlns:sodipodi="http://sodipodi.sourceforge.net/DTD/sodipodi-0.dtd"
   xmlns="http://www.w3.org/2000/svg"
   xmlns:svg="http://www.w3.org/2000/svg"><sodipodi:namedview
     id="namedview1"
     pagecolor="#ffffff"
     bordercolor="#000000"
     borderopacity="0.25"
     inkscape:showpageshadow="2"
     inkscape:pageopacity="0.0"
     inkscape:pagecheckerboard="0"
     inkscape:deskcolor="#d1d1d1"
     inkscape:document-units="mm"
     inkscape:zoom="0.61097211"
     inkscape:cx="3825.8702"
     inkscape:cy="1820.0503"
     inkscape:window-width="1800"
     inkscape:window-height="1033"
     inkscape:window-x="0"
     inkscape:window-y="44"
     inkscape:window-maximized="1"
     inkscape:current-layer="layer1" /><defs
     id="defs1"><linearGradient
       id="swatch30"
       inkscape:swatch="solid"><stop
         style="stop-color:#ffffff;stop-opacity:1;"
         offset="0"
         id="stop30" /></linearGradient></defs><g
     inkscape:label="Calque 1"
     inkscape:groupmode="layer"
     id="layer1"
     transform="translate(-989.592,-352.04033)"><path
       style="fill:#000000;fill-opacity:1"
       d="m 1071.6874,510.35277 c 0,0 0.7057,-0.18613 0.8269,-0.7939 0.01,-0.0498 0.1492,-2.4397 0.2647,-5.3305 0.1673,-4.1868 0.3676,-2.20067 -0.095,-2.19814 l -67.7896,0.37063 -0.1869,1.65551 c -0.5802,5.13945 0.2204,6.1362 1.5228,6.6609 0.424,0.1709 15.1515,0.3207 32.7277,0.333 31.6881,0.022 32.7294,-0.6975 32.7294,-0.6975 z"
       id="path97"
       sodipodi:nodetypes="cssscssssc"
       inkscape:export-filename="../Bureau - MacBook Pro de Dorian/Work/Divers/In-Box_airbag_light/logo/logo.svg"
       inkscape:export-xdpi="96"
       inkscape:export-ydpi="96" /><path
       style="fill:#000000;fill-opacity:1"
       d="m 1009.8689,414.81072 c 1.631,-0.6049 4.6328,-1.6954 6.6707,-2.4234 2.0378,-0.728 4.0227,-1.4391 4.4109,-1.5803 0.3882,-0.1411 1.5791,-0.5717 2.6465,-0.9568 3.5316,-1.43178 7.1907,-2.50596 10.7627,-3.8303 0.1941,-0.1394 1.385,-0.6016 2.6466,-1.027 1.2615,-0.4254 2.6112,-0.9098 2.9994,-1.0763 1.6899,-0.7253 11.4123,-3.8854 11.9536,-3.8854 0.7914,0 3.9672,-1.623 4.7318,-2.4181 1.9607,-2.0393 2.0564,-2.36 3.4307,-11.4943 0.8826,-5.8658 0.5109,-11.5111 -1.0715,-16.2734 -0.5981,-1.8 -3.1398,-6.7129 -3.8337,-7.4103 -0.2146,-0.2157 -0.8666,-0.9357 -1.4489,-1.6 -1.1676,-1.3321 -4.6022,-4.0293 -6.5281,-5.1265 -4.266,-2.4304 -9.5476,-3.6683 -15.6516,-3.6683 -5.0385,0 -7.2353,0.356 -12.5771,2.038 -5.2938,1.6669 -12.4043,7.0031 -14.6873,11.0224 -0.4552,0.8014 -1.1185,1.8826 -1.4739,2.4027 -1.3941,2.0397 -4.58792,10.7592 -5.38717,14.7077 -0.60837,3.0055 -0.90199,10.5133 -0.61851,15.8152 0.34004,6.3599 1.25092,9.0182 4.99938,14.5901 2.4559,3.6507 3.4016,3.9092 8.0255,2.1943 z m -10.92133,-16.1707 c -0.22252,-1.3474 -0.4044,-3.5308 -0.40416,-4.852 6.6e-4,-3.7226 0.99067,-11.3487 1.87399,-14.4352 l 0.7977,-2.7877 2.6338,-0.2568 c 1.4486,-0.1412 5.1744,-0.5001 8.2797,-0.7976 3.1053,-0.2975 7.0752,-0.7767 8.8219,-1.0648 5.9197,-0.9765 7.4604,-1.0442 8.4846,-0.3731 3.1175,2.0426 3.0301,9.4661 -0.1708,14.5134 -1.3712,2.1621 -3.3979,3.8554 -5.9124,4.9396 -1.1267,0.4858 -2.3661,1.0272 -2.7543,1.203 -2.046,0.9267 -13.4497,4.709 -17.0926,5.6692 -4.12348,1.0869 -4.08516,1.1017 -4.55743,-1.758 z"
       id="path99"
       sodipodi:nodetypes="ssssssssssssssssssssssssscsssssssss" /><g
       id="g101"
       transform="translate(700.70189,-501.25243)"
       style="fill:#000000;fill-opacity:1;stroke:none;stroke-opacity:1"><path
         style="fill:#000000;fill-opacity:1;stroke:none;stroke-opacity:1"
         d="m 323.8958,994.41835 c -1.63488,0.6377 -6.05399,2.2791 -9.82033,3.6476 -3.76632,1.3685 -14.03876,5.50095 -14.03876,5.50095 0,0 -0.82046,0.016 -1.06728,-0.3777 -3.80419,-6.06976 -2.86722,-8.31513 -7.10169,-12.89829 -0.20806,-0.22519 1.97152,-1.77196 7.79222,-5.09926 16.5016,-9.4328 16.62746,-9.5111 17.22289,-10.7064 0.2874,-0.577 1.10251,-3.4774 1.81122,-6.4453 0.70875,-2.9678 1.88592,-7.8332 2.61604,-10.8117 0.73006,-2.9787 1.66622,-6.9216 2.08033,-8.7619 1.22746,-5.455 3.18686,-11.2406 4.40361,-13.0027 3.42586,-4.9613 9.29578,-7.5314 15.27125,-6.6863 4.09922,0.5798 8.47357,2.6772 10.65152,6.1518 3.03155,4.8369 -4.04813,19.242 -4.42039,19.5547 -2.04435,4.9539 -3.47643,8.2434 -5.11033,11.739 -0.66468,1.4221 -1.29518,2.8083 -1.40097,3.0805 -0.63498,1.6335 -2.15975,5.1328 -2.52524,5.7952 -0.23671,0.429 -1.086,2.2986 -1.88761,4.1546 -1.99633,4.623 -4.47278,8.9283 -6.12719,10.6524 -1.48912,1.5518 -3.38146,2.5746 -8.34935,4.5123 z"
         id="path100"
         sodipodi:nodetypes="sscssssssssssssssssss" /><path
         style="fill:#000000;fill-opacity:1;stroke:none;stroke-width:1.47192;stroke-linecap:round;stroke-linejoin:bevel;stroke-opacity:1;paint-order:stroke fill markers"
         id="path101"
         sodipodi:type="arc"
         sodipodi:cx="296.89008"
         sodipodi:cy="996.21173"
         sodipodi:rx="8"
         sodipodi:ry="8"
         sodipodi:start="6.2048026"
         sodipodi:end="6.2014511"
         sodipodi:open="true"
         sodipodi:arc-type="arc"
         d="m 304.86551,995.58531 a 8,8 0 0 1 -7.34233,8.60129 8,8 0 0 1 -8.60748,-7.33509 8,8 0 0 1 7.32791,-8.61362 8,8 0 0 1 8.61976,7.3207" /></g><path
       id="path98"
       style="fill:none;fill-opacity:1;stroke:#000000;stroke-opacity:1"
       d="m 1051.5911,406.5633 c -2.7049,0.0816 -6.0975,0.7117 -11.9383,1.94355 -2.3816,0.5023 -14.1984,4.54943 -16.7617,5.74073 -0.6793,0.3156 -2.1878,0.92147 -3.3523,1.34617 -3.9075,1.425 -5.544,2.9683 -9.8769,9.3152 -3.8548,5.64629 -7.5247,13.98851 -9.3617,21.2788 -2.13965,8.49129 -3.10725,20.44692 -3.43082,36.7006 -0.17593,9.4482 -0.13197,10.73311 0.43047,12.5212 0.84802,2.6961 2.54796,4.58282 5.32165,5.90662 0,0 0.681,1.0322 2.2732,1.08469 l 68.8103,-0.37621 c 3.7597,-0.26127 6.5669,-3.552 6.8812,-6.07611 0.093,-3.8253 0.2005,-8.70128 0.2005,-8.70128 0.4472,-19.39738 -0.7649,-34.67186 -3.7651,-47.44465 -2.8191,-12.00139 -7.3491,-20.99836 -9.616,-25.00726 -0.6212,-1.0985 -2.1225,-2.92465 -3.3362,-4.05815 -1.791,-1.6724 -2.6705,-2.20468 -4.6664,-2.82618 -3.0901,-0.96225 -5.107,-1.42937 -7.8119,-1.34772 z"
       sodipodi:nodetypes="sssssscssccccsssss" /></g></svg>
